<?xml version="1.0" encoding="utf-8"?>
<svg xmlns="http://www.w3.org/2000/svg" xml:space="preserve" width="300" height="300">
  <path d="M197.182 111.804c9.543 9.83 22.787 15.042 35.866 18.225 12.076 3.479 24.822 4.165 37.311 3.557-6.333-2.82-13.699-1.989-19.955-5.077-10.393-4.721-20.688-10-29.529-17.303-7.295-5.966-12.943-13.861-16.359-22.638-2.488-5.208-4.435-11.256-9.452-14.625-4.156-3.01-10.156-2.001-13.871 1.221-3.1 2.881-2.654 7.561-1.334 11.195 3.578 9.759 10.245 17.987 17.323 25.445zm-61.004 20.238c-.657-8.333-1.193-16.905-4.632-24.649-2.046-4.944-6.388-8.81-11.704-9.801-4.584 1.846-8.614 5.359-9.794 10.328-2.584 10.508 1.608 20.966 3.508 31.217 4.171 21.443 11.068 42.211 15.617 63.566 2.85 9.772 5.86 19.508 8.731 29.279 1.293 4.063 2.333 8.308 4.664 11.938.528-3.632.324-7.308.296-10.959-1.604-33.678-3.257-67.37-6.686-100.919zm36.631-23.783c-8.879-6.175-19.898-9.875-30.747-8.34-3.473 2.923-6.029 7.503-5.287 12.149 1.03 4.193 4.738 6.834 8.119 9.11 8.239 5.126 17.662 7.805 26.653 11.257-7.538 15.517-15.02 31.066-22.898 46.418-1.131 2.14-1.638 4.526-1.981 6.905 3.704-1.351 6.116-4.629 8.848-7.286 8.157-8.798 16.747-17.177 24.873-26.001 5.864-6.408 10.836-14.552 10.691-23.488-1.195-9.987-10.503-15.824-18.271-20.724zm-72.25 39.105c-7.568-6.662-17.635-10.142-27.678-10.142-2.809 0-5.617.272-8.368.825-16.694 3.643-31.276 14.824-39.833 29.507-11.422 17.805-14.334 41.597-5.302 61.021 5.17 11.462 15.503 20.673 27.747 23.841 3.605.859 7.303 1.283 11.004 1.283 9.142 0 18.285-2.588 25.973-7.581 12.214-6.867 21.108-18.434 27.115-30.884 5.59-13.565 7.978-28.992 3.938-43.313-2.168-9.461-7.426-18.059-14.596-24.557zm5.179 65.417c-4.365 8.999-12.154 21.12-24.575 28.103l-.167.095-.161.104c-6.565 4.264-14.629 6.613-22.705 6.613-3.245 0-6.46-.373-9.559-1.106-10.126-2.641-19.212-10.484-23.723-20.483l-.014-.032-.015-.03c-7.795-16.764-5.867-38.451 4.912-55.253l.069-.107.065-.109c7.863-13.491 21.273-23.453 35.88-26.656 2.323-.462 4.724-.696 7.137-.696 8.813 0 17.443 3.14 23.682 8.614 6.38 5.795 10.906 13.401 12.744 21.422l.033.146.041.144c4.182 14.827.347 29.488-3.644 39.231zm177.194-35.646c-2.18-11.729-8.479-22.778-18.1-29.95-7.17-5.262-16.066-7.959-24.944-7.959-2.785 0-5.57.266-8.297.8-13.89 3.064-26.455 11.233-35.112 22.485-5.685 7.652-10.724 16.095-12.894 25.478-4.575 15.795-3.114 33.662 5.615 47.801 7.263 11.795 20.565 19.886 34.532 19.886.438 0 .88-.007 1.318-.023.457.016.912.023 1.367.023 11.479 0 22.246-5.17 31.299-11.921 19.456-15.534 30.196-41.999 25.216-66.62zm-28.879 61.867c-9.521 7.082-18.818 10.673-27.634 10.673-.382 0-.765-.007-1.15-.021l-.219-.008-.219.008c-.367.014-.734.021-1.099.021-11.502 0-23.053-6.685-29.428-17.038-7.419-12.016-9.271-28.083-4.958-42.979l.046-.158.037-.16c1.665-7.199 5.427-14.575 11.831-23.207 7.82-10.144 19.314-17.513 31.55-20.231 2.308-.449 4.688-.676 7.078-.676 7.824 0 15.422 2.413 21.358 6.769 8.049 5.999 13.803 15.561 15.786 26.235l.009.047.01.047c4.402 21.759-4.84 46.13-22.998 60.678z"/>
  <circle cx="227.966" cy="66.351" r="22"/>
</svg>