<?xml version="1.0" encoding="UTF-8" standalone="no"?>
<!-- Created with Inkscape (http://www.inkscape.org/) -->

<svg
   xmlns:dc="http://purl.org/dc/elements/1.1/"
   xmlns:cc="http://creativecommons.org/ns#"
   xmlns:rdf="http://www.w3.org/1999/02/22-rdf-syntax-ns#"
   xmlns:svg="http://www.w3.org/2000/svg"
   xmlns="http://www.w3.org/2000/svg"
   xmlns:sodipodi="http://sodipodi.sourceforge.net/DTD/sodipodi-0.dtd"
   xmlns:inkscape="http://www.inkscape.org/namespaces/inkscape"
   width="393"
   height="143.77"
   id="svg7893"
   version="1.1"
   inkscape:version="0.48.0 r9654"
   sodipodi:docname="New document 3">
  <defs
     id="defs7895">
    <clipPath
       clipPathUnits="userSpaceOnUse"
       id="clipPath148">
      <path
         inkscape:connector-curvature="0"
         d="m 56.693,701.105 481.89,0 0,112.438 -481.89,0 0,-112.438 z"
         id="path150" />
    </clipPath>
  </defs>
  <sodipodi:namedview
     id="base"
     pagecolor="#ffffff"
     bordercolor="#666666"
     borderopacity="1.0"
     inkscape:pageopacity="0.0"
     inkscape:pageshadow="2"
     inkscape:zoom="2.8"
     inkscape:cx="201.64475"
     inkscape:cy="80.739643"
     inkscape:document-units="px"
     inkscape:current-layer="layer1"
     showgrid="false"
     fit-margin-top="0"
     fit-margin-left="0"
     fit-margin-right="0"
     fit-margin-bottom="0"
     inkscape:window-width="1280"
     inkscape:window-height="750"
     inkscape:window-x="-8"
     inkscape:window-y="-8"
     inkscape:window-maximized="1" />
  <metadata
     id="metadata7898">
    <rdf:RDF>
      <cc:Work
         rdf:about="">
        <dc:format>image/svg+xml</dc:format>
        <dc:type
           rdf:resource="http://purl.org/dc/dcmitype/StillImage" />
        <dc:title></dc:title>
      </cc:Work>
    </rdf:RDF>
  </metadata>
  <g
     inkscape:label="Layer 1"
     inkscape:groupmode="layer"
     id="layer1"
     transform="translate(-234.8192,-331.88668)">
    <g
       transform="matrix(2.5170282,0,0,-2.5170282,-311.48881,2342.523)"
       id="g7840">
      <g
         transform="translate(228.0342,743.2656)"
         id="g110">
        <path
           inkscape:connector-curvature="0"
           id="path112"
           style="fill:#231f20;fill-opacity:1;fill-rule:nonzero;stroke:none"
           d="m 0,0 0,19.467 -10.138,0 0,5.899 28.242,0 0,-5.899 -9.963,0 L 8.141,0 0,0 z" />
      </g>
      <path
         inkscape:connector-curvature="0"
         id="path114"
         style="fill:#231f20;fill-opacity:1;fill-rule:nonzero;stroke:none"
         d="m 248.622,768.632 8.276,0 0,-25.366 -8.276,0 0,25.366 z" />
      <g
         transform="translate(354.3672,743.2656)"
         id="g116">
        <path
           inkscape:connector-curvature="0"
           id="path118"
           style="fill:#231f20;fill-opacity:1;fill-rule:nonzero;stroke:none"
           d="m 0,0 0,19.467 -10.138,0 0,5.899 28.242,0 0,-5.899 -9.95,0 L 8.154,0 0,0 z" />
      </g>
      <g
         transform="translate(315.7977,756.0095)"
         id="g120">
        <path
           inkscape:connector-curvature="0"
           id="path122"
           style="fill:#231f20;fill-opacity:1;fill-rule:nonzero;stroke:none"
           d="M 0,0 C -0.013,8.829 6.575,13.203 14.688,13.203 22.802,13.203 29.363,8.276 29.376,0 29.39,-8.329 22.802,-13.19 14.688,-13.19 6.575,-13.19 0,-9.383 0,0 m 8.221,0 c 0,-4.806 1.864,-8.708 6.467,-8.708 4.293,0 6.332,3.902 6.332,8.708 0,4.806 -2.349,8.707 -6.332,8.707 C 10.017,8.707 8.221,4.806 8.221,0" />
      </g>
      <g
         transform="translate(295.9123,743.063)"
         id="g124">
        <path
           inkscape:connector-curvature="0"
           id="path126"
           style="fill:#231f20;fill-opacity:1;fill-rule:nonzero;stroke:none"
           d="m 0,0 c -4.441,0.904 -8.681,4.185 -8.356,9.031 l 7.721,0 C -0.162,7.992 -0.351,6.925 0.364,5.926 0.756,5.373 1.202,4.9 1.755,4.617 2.2,4.387 2.619,4.104 3.105,3.982 4.387,3.659 5.71,3.618 6.925,4.023 7.816,4.306 8.613,4.914 9.018,5.818 9.247,6.305 9.234,6.885 9.059,7.411 8.95,7.708 8.762,7.992 8.613,8.235 8.019,9.166 6.952,9.396 5.94,9.72 c -4.482,1.404 -10.395,0.837 -12.852,5.562 -0.729,1.404 -0.77,2.983 -0.391,4.563 0.269,1.12 0.998,2.038 1.781,2.781 0.73,0.702 1.553,1.39 2.525,1.822 4.752,2.147 10.22,1.917 14.863,-0.121 2.768,-1.202 5.049,-3.767 5.157,-6.966 l -7.33,0 C 9.355,18.657 8.694,19.791 7.547,20.56 6.115,21.492 4.482,21.6 2.862,21.181 1.633,20.857 0.284,19.805 0.797,18.387 1.093,17.536 1.998,17.145 2.862,16.915 6.952,15.808 11.043,15.592 14.755,13.338 16.578,12.231 17.577,10.3 17.55,8.289 17.467,1.639 11.186,-0.516 5.164,-0.517 3.362,-0.517 1.583,-0.323 0,0" />
      </g>
      <g
         transform="translate(267.9267,743.171)"
         id="g128">
        <path
           inkscape:connector-curvature="0"
           id="path130"
           style="fill:#231f20;fill-opacity:1;fill-rule:nonzero;stroke:none"
           d="m 0,0 c -4.441,0.904 -8.667,4.185 -8.343,9.031 l 7.709,0 C -0.162,7.992 -0.351,6.912 0.365,5.927 0.77,5.373 1.202,4.901 1.769,4.617 2.201,4.387 2.619,4.117 3.118,3.982 4.401,3.659 5.711,3.631 6.926,4.023 7.83,4.307 8.613,4.914 9.032,5.818 9.248,6.305 9.248,6.885 9.059,7.411 8.951,7.708 8.775,7.992 8.613,8.235 8.033,9.167 6.966,9.396 5.953,9.72 c -4.495,1.404 -10.408,0.837 -12.865,5.562 -0.715,1.404 -0.756,2.984 -0.391,4.563 0.27,1.12 0.999,2.038 1.781,2.781 0.743,0.702 1.553,1.39 2.525,1.822 4.766,2.147 10.233,1.917 14.877,-0.121 2.754,-1.202 5.035,-3.767 5.157,-6.966 l -7.344,0 C 9.356,18.657 8.708,19.791 7.547,20.547 6.129,21.492 4.496,21.6 2.862,21.182 1.647,20.857 0.297,19.805 0.797,18.387 1.107,17.536 2.012,17.145 2.862,16.916 6.953,15.808 11.056,15.592 14.769,13.338 16.592,12.217 17.591,10.301 17.564,8.289 17.47,1.643 11.194,-0.522 5.174,-0.522 3.368,-0.522 1.586,-0.327 0,0" />
      </g>
      <g
         id="g144">
        <g
           clip-path="url(#clipPath148)"
           id="g146">
          <path
             inkscape:connector-curvature="0"
             id="path152"
             style="fill:#231f20;fill-opacity:1;fill-rule:nonzero;stroke:none"
             d="m 272.301,798.008 21.803,0 0,-21.384 -21.803,0 0,21.384 z m 2.916,-6.494 5.683,0 0,-12.271 4.914,0 0,12.271 5.589,0 0,3.632 -16.186,0 0,-3.632 z" />
          <g
             transform="translate(280.9003,779.243)"
             id="g154">
            <path
               inkscape:connector-curvature="0"
               id="path156"
               style="fill:#ffffff;fill-opacity:1;fill-rule:nonzero;stroke:none"
               d="m 0,0 0,12.271 -5.684,0 0,3.632 16.187,0 0,-3.632 -5.589,0 L 4.914,0 0,0 z" />
          </g>
          <path
             inkscape:connector-curvature="0"
             id="path158"
             style="fill:#ed1c24;fill-opacity:1;fill-rule:nonzero;stroke:none"
             d="m 296.682,798.103 21.843,0 0,-21.56 -21.843,0 0,21.56 z m 2.997,-13.109 5.602,0 0,-5.562 4.725,0 0,5.562 5.603,0 0,4.792 -5.603,0 0,5.522 -4.725,0 0,-5.522 -5.602,0 0,-4.792 z" />
          <g
             transform="translate(305.2813,779.432)"
             id="g160">
            <path
               inkscape:connector-curvature="0"
               id="path162"
               style="fill:#ffffff;fill-opacity:1;fill-rule:nonzero;stroke:none"
               d="m 0,0 0,5.562 -5.603,0 0,4.792 5.603,0 0,5.522 4.725,0 0,-5.522 5.602,0 0,-4.792 -5.602,0 L 4.725,0 0,0 z" />
          </g>
        </g>
      </g>
    </g>
  </g>
</svg>
