<?xml version="1.0" encoding="utf-8"?>
<!-- Generator: Adobe Illustrator 22.1.0, SVG Export Plug-In . SVG Version: 6.00 Build 0)  -->
<svg version="1.1" id="Layer_1" xmlns="http://www.w3.org/2000/svg" xmlns:xlink="http://www.w3.org/1999/xlink" x="0px" y="0px" viewBox="0 0 1880.8 455.2" style="enable-background:new 0 0 1880.8 455.2;" xml:space="preserve">
  <style type="text/css">
	.st0{fill:#FFFFFF;}
	.st1{fill:#0078C8;}
	.st2{fill:#C8143C;}
	.st3{fill:#FAE100;}
	.st4{fill:#32B432;}
</style>
  <rect y="0" class="st0" width="1880.8" height="455.2" />
  <path d="M763.8,280.5c-23.4,18.3-51.5,28.4-79.7,28.4c-57.9,0-94.8-31.8-94.8-80.1c0-56.5,44.9-81.7,90.7-81.7
	c29.5,0,56.7,10.2,79.5,26l36.1-57.9c-25.3-19.9-70.2-33.5-121.3-33.5c-97.2,0-168.7,57.6-168.7,147.1
	c0,84.9,69.5,144.9,168.7,144.9c56.1,0,93.3-13.6,124.6-34.4L763.8,280.5z" />
  <rect y="85.9" class="st1" width="129.9" height="56.7" />
  <rect y="142.6" class="st2" width="129.9" height="56.7" />
  <path d="M129.9,238.6v-39.3H0V256h130.5C130.1,250.3,129.9,244.5,129.9,238.6z" />
  <path class="st3" d="M130.5,256H0v56.7h141.4C135.4,295.6,131.7,276.7,130.5,256z" />
  <path class="st4" d="M172.7,365.7c-13.7-14.9-24.2-32.7-31.3-53H0v56.7h176.1C175,368.2,173.8,367,172.7,365.7z" />
  <path d="M176.2,85.9h86.4v167.9c0,32.9,22.4,56.9,59.8,56.9c37.4,0,59.8-24,59.8-56.9V85.9h86.3v152.7c0,75.4-32.7,135-146.1,135
	c-113.4,0-146.1-59.6-146.1-135V85.9z" />
  <rect x="832.5" y="85.9" width="85.9" height="283.5" />
  <g>
    <path d="M1058.1,120.7c0,21.2-8.4,32.2-27.1,32.2c-17.8,0-26.7-10.7-26.7-32.2V85.9h15.2v36.4c0,11.6,4.4,17.4,11.7,17.4
		c7.2,0,11.7-5.8,11.7-17.4V85.9h15.2V120.7z" />
    <path d="M1130.3,151.8h-13.7l-27.8-38.2v38.2h-15.2V85.9h13.5l28.1,38.4V85.9h15.2V151.8z" />
    <path d="M1161.1,151.8h-15.2V85.9h15.2V151.8z" />
    <path d="M1242.8,118.8c0,9.5-3.4,17.5-10.1,24.2c-6.7,6.6-14.9,9.9-24.7,9.9c-9.8,0-18.1-3.3-24.7-9.9c-6.7-6.7-10-14.7-10-24.2
		c0-9.5,3.3-17.5,10-24.1c6.7-6.7,15-10,24.7-10c9.8,0,18,3.3,24.7,10C1239.4,101.3,1242.8,109.3,1242.8,118.8z M1226.6,118.8
		c0-5.9-1.8-10.8-5.3-14.9c-3.5-4-7.9-6-13.3-6c-5.4,0-9.8,2-13.3,6c-3.5,4-5.3,8.9-5.3,14.9c0,5.9,1.8,10.8,5.3,14.9s7.9,6,13.3,6
		c5.4,0,9.8-2,13.3-6S1226.6,124.7,1226.6,118.8z" />
    <path d="M1311.9,151.8h-13.7l-27.8-38.2v38.2H1255V85.9h13.5l28.1,38.4V85.9h15.2V151.8z" />
  </g>
  <path d="M1050.7,212.3c-4.4-3.7-9-5.6-13.8-5.6c-5.4,0-9.9,2.1-13.5,6.1c-3.6,4-5.4,8.9-5.4,14.8c0,12.4,7,20.9,18.7,20.9
	c5.2,0,9.8-1.9,13.8-5.7l8.7,10.9c-6.9,5.4-14.6,8-23.1,8c-9.9,0-18.1-3.2-24.6-9.6c-6.5-6.4-9.7-14.6-9.7-24.5
	c0-9.5,3.4-17.6,10.2-24.2c6.9-6.6,15.1-9.9,24.7-9.9c6.9,0,13.9,2.4,21.3,7L1050.7,212.3z" />
  <path d="M1099.6,260.6h-15.2v-27.4l-20.8-38.5h18.7l10.3,22.2h0.2l11.5-22.2h17.7l-22.3,39V260.6z" />
  <path d="M1171.2,212.3c-4.4-3.7-9-5.6-13.8-5.6c-5.4,0-9.9,2.1-13.5,6.1c-3.6,4-5.4,8.9-5.4,14.8c0,12.4,7,20.9,18.7,20.9
	c5.2,0,9.8-1.9,13.8-5.7l8.7,10.9c-6.9,5.4-14.6,8-23.1,8c-9.9,0-18.1-3.2-24.6-9.6c-6.5-6.4-9.7-14.6-9.7-24.5
	c0-9.5,3.4-17.6,10.2-24.2c6.9-6.6,15.1-9.9,24.7-9.9c6.9,0,13.9,2.4,21.3,7L1171.2,212.3z" />
  <path d="M1230.7,260.6h-41.6v-65.9h15.2v53.3h26.3V260.6z" />
  <path d="M1254.3,260.6h-15.2v-65.9h15.2V260.6z" />
  <path d="M1305.2,212.5c-4.9-4-9.4-6.1-13.6-6.1c-3.8,0-7.2,2.2-7.2,5.6c0,1.9,0.6,3.2,2.4,4.3l2.2,1.2l3,1l2.5,0.8
	c4.8,1.6,7.1,2.4,11.2,4.9c2.2,1.2,3.8,2.6,5,4c2.4,2.7,4.5,7.4,4.5,13c0,14-13.5,20.3-25.6,20.3c-9.6,0-18.2-3.9-25.7-11.5l9.9-9.7
	c2.2,2.1,3.9,3.6,5,4.4c2.3,1.8,6.6,4,11,4c5.2,0,9.2-2.4,9.2-7.2c0-2-1.3-3.8-2.4-4.9c-0.6-0.6-1.5-1.1-2.9-1.8l-3.1-1.4l-3.6-1.3
	c-4.2-1.6-6.5-2.5-10-4.8c-5-3.3-7.6-7.6-7.9-15.3c0-5.9,2.2-10.4,6.6-13.6c4.4-3.2,9.6-4.8,15.6-4.8c7.8,0,15.2,2.7,22.4,8.1
	L1305.2,212.5z" />
  <path d="M1367.4,207.3h-15.2v53.3h-15.2v-53.3h-15.2v-12.6h45.7V207.3z" />
  <path d="M1419.1,260.6h-43.3v-65.9h43.3v12.6h-28v13.1h24.6V233H1391v15h28V260.6z" />
  <path d="M1794.9,369.4h-43.3v-65.9h43.3v12.6h-28v13.1h24.6v12.6h-24.6v15h28V369.4z" />
  <path d="M1197.6,369.4h-43.3v-65.9h43.3v12.6h-28v13.1h24.6v12.6h-24.6v15h28V369.4z" />
  <path d="M1019.6,369.4h-15.2v-65.9h15.2V369.4z" />
  <path d="M1091.8,369.4h-13.7l-27.8-38.2v38.2H1035v-65.9h13.5l28.1,38.4v-38.4h15.2V369.4z" />
  <path d="M1145.9,316.1h-15.2v53.3h-15.2v-53.3h-15.2v-12.6h45.7V316.1z" />
  <path d="M1211.9,369.4v-65.9h21.5c10.8,0,24.7,5.6,24.7,20c0,9.1-5.6,15.2-13.6,18.3l19.9,27.5h-19l-17.4-25.7h-0.7v25.7H1211.9z
	 M1227.2,316.1v15h4c6.4,0,10.6-2.4,10.6-7.2c0-4.6-3.6-7.7-8.8-7.7H1227.2z" />
  <path d="M1329.9,369.4h-13.7l-27.8-38.2v38.2h-15.2v-65.9h13.5l28.1,38.4v-38.4h15.2V369.4z" />
  <path d="M1402.7,369.4h-17.5l-3.9-11.6h-21.7l-4.1,11.6h-16.8l27.4-65.9h12.1L1402.7,369.4z M1370.8,326.6l-6.8,19h13.2
	L1370.8,326.6L1370.8,326.6z" />
  <path d="M1445.9,316.1h-15.2v53.3h-15.2v-53.3h-15.2v-12.6h45.7V316.1z" />
  <path d="M1469.5,369.4h-15.2v-65.9h15.2V369.4z" />
  <path d="M1551.1,336.4c0,9.5-3.4,17.5-10.1,24.2c-6.7,6.6-14.9,9.9-24.7,9.9c-9.8,0-18.1-3.3-24.7-9.9c-6.7-6.7-10-14.7-10-24.2
	c0-9.5,3.3-17.5,10-24.1c6.7-6.7,15-10,24.7-10c9.8,0,18,3.3,24.7,10C1547.7,318.9,1551.1,326.9,1551.1,336.4z M1534.9,336.4
	c0-5.9-1.8-10.8-5.3-14.9c-3.5-4-7.9-6-13.3-6c-5.4,0-9.8,2-13.3,6c-3.5,4-5.3,8.9-5.3,14.9c0,5.9,1.8,10.8,5.3,14.9s7.9,6,13.3,6
	c5.4,0,9.8-2,13.3-6S1534.9,342.4,1534.9,336.4z" />
  <path d="M1620.2,369.4h-13.7l-27.8-38.2v38.2h-15.2v-65.9h13.5l28.1,38.4v-38.4h15.2V369.4z" />
  <path d="M1693,369.4h-17.5l-3.9-11.6h-21.7l-4.1,11.6h-16.8l27.4-65.9h12.1L1693,369.4z M1661.1,326.6l-6.8,19h13.2L1661.1,326.6
	L1661.1,326.6z" />
  <path d="M1743.3,369.4h-41.6v-65.9h15.2v53.3h26.3V369.4z" />
</svg>